<svg width="24" height="24" viewBox="0 0 24 24" fill="none" xmlns="http://www.w3.org/2000/svg">
<path d="M8 8C8.55228 8 9 8.44772 9 9C9 9.55228 8.55228 10 8 10H5C4.44772 10 4 9.55228 4 9C4 8.44772 4.44772 8 5 8H8Z" fill="black"/>
<path d="M8 5C8.55228 5 9 5.44772 9 6C9 6.55228 8.55228 7 8 7H5C4.44772 7 4 6.55228 4 6C4 5.44772 4.44772 5 5 5H8Z" fill="black"/>
<path fill-rule="evenodd" clip-rule="evenodd" d="M18 0C21.3137 0 24 2.68629 24 6V18C24 21.3137 21.3137 24 18 24H6C2.68629 24 0 21.3137 0 18V6C0 2.68629 2.68629 0 6 0H18ZM6 2C3.79086 2 2 3.79086 2 6V18C2 20.2091 3.79086 22 6 22H10V2H6ZM12 22H18C20.2091 22 22 20.2091 22 18V6C22 3.79086 20.2091 2 18 2H12V22Z" fill="black"/>
</svg>
