<svg width="72" height="48" viewBox="0 0 72 48" fill="none" xmlns="http://www.w3.org/2000/svg">
<path d="M60.3096 0.00390625C66.7939 0.168106 72 5.47608 72 12V36C72 42.5239 66.7939 47.8319 60.3096 47.9961L60 48H12L11.6904 47.9961C5.20609 47.8319 0 42.5239 0 36V12C0 5.47608 5.20608 0.168106 11.6904 0.00390625L12 0H60L60.3096 0.00390625ZM12 3C7.02944 3 3 7.02944 3 12V36C3 40.9706 7.02944 45 12 45H17.5V3H12ZM20.5 45H60C64.9706 45 69 40.9706 69 36V12C69 7.02944 64.9706 3 60 3H20.5V45Z" fill="black"/>
</svg>
